<?xml version="1.0" standalone="no"?>
<!DOCTYPE svg PUBLIC "-//W3C//DTD SVG 20010904//EN"
 "http://www.w3.org/TR/2001/REC-SVG-20010904/DTD/svg10.dtd">
<svg version="1.0" xmlns="http://www.w3.org/2000/svg"
 width="213.000000pt" height="200.000000pt" viewBox="0 0 213.000000 200.000000"
 preserveAspectRatio="xMidYMid meet">

<g transform="translate(0.000000,200.000000) scale(0.100000,-0.100000)"
fill="#000000" stroke="none">
<path d="M1030 1845 c0 -16 6 -25 15 -25 9 0 15 9 15 25 0 16 -6 25 -15 25 -9
0 -15 -9 -15 -25z m17 -7 c-3 -8 -6 -5 -6 6 -1 11 2 17 5 13 3 -3 4 -12 1 -19z"/>
<path d="M1080 1845 c0 -20 4 -26 18 -23 9 2 17 12 17 23 0 11 -8 21 -17 23
-14 3 -18 -3 -18 -23z m30 0 c0 -8 -4 -15 -10 -15 -5 0 -10 7 -10 15 0 8 5 15
10 15 6 0 10 -7 10 -15z"/>
<path d="M1137 1863 c-4 -3 -7 -16 -6 -27 0 -19 1 -19 10 3 10 24 8 36 -4 24z"/>
<path d="M914 1852 c-6 -4 -8 -16 -4 -27 6 -17 7 -16 12 8 3 15 5 27 4 27 0 0
-6 -4 -12 -8z"/>
<path d="M980 1840 c0 -9 6 -17 14 -17 8 0 14 8 13 17 0 9 -7 17 -14 17 -7 0
-13 -8 -13 -17z"/>
<path d="M1162 1840 c0 -14 2 -19 5 -12 2 6 2 18 0 25 -3 6 -5 1 -5 -13z"/>
<path d="M1190 1835 c0 -17 5 -25 18 -25 13 0 14 2 4 9 -11 7 -10 9 3 15 19 7
11 26 -11 26 -8 0 -14 -10 -14 -25z"/>
<path d="M1240 1836 c0 -8 -3 -21 -6 -29 -4 -12 0 -14 15 -10 21 5 35 29 25
44 -8 14 -34 10 -34 -5z m30 -5 c0 -6 -4 -13 -10 -16 -5 -3 -10 1 -10 9 0 9 5
16 10 16 6 0 10 -4 10 -9z"/>
<path d="M850 1826 c0 -8 5 -18 12 -22 7 -5 9 -2 5 9 -4 11 -2 14 9 10 7 -3
14 0 14 6 0 6 -9 11 -20 11 -11 0 -20 -6 -20 -14z"/>
<path d="M1303 1834 c4 -4 -1 -13 -11 -20 -16 -12 -16 -13 2 -20 11 -4 21 -2
27 7 13 20 11 26 -8 33 -10 4 -14 4 -10 0z"/>
<path d="M811 1813 c7 -10 15 -20 16 -22 2 -2 3 5 3 17 0 14 -6 22 -16 22 -14
0 -15 -3 -3 -17z"/>
<path d="M775 1807 c-6 -15 -10 -16 -16 -5 -7 10 -9 10 -9 -2 0 -8 4 -21 9
-29 7 -11 11 -10 20 5 7 13 10 14 11 5 0 -8 2 -12 5 -9 3 3 1 16 -4 29 -8 22
-10 22 -16 6z"/>
<path d="M1344 1805 c-6 -16 12 -45 27 -45 5 0 8 12 8 28 -1 16 -3 20 -6 10
-2 -10 -9 -18 -15 -18 -6 0 -8 9 -5 20 6 23 -1 27 -9 5z"/>
<path d="M1396 1785 c-9 -24 -8 -28 9 -21 8 3 15 0 15 -7 0 -8 4 -6 10 3 13
20 13 33 -1 24 -6 -3 -15 -1 -19 6 -5 8 -9 7 -14 -5z"/>
<path d="M712 1773 c2 -10 12 -19 23 -20 17 -2 17 -1 2 3 -11 4 -16 12 -13 20
3 8 1 14 -5 14 -6 0 -9 -8 -7 -17z"/>
<path d="M665 1761 c-3 -5 0 -21 6 -35 l12 -26 12 23 c6 12 10 28 7 35 -5 14
-28 16 -37 3z m25 -16 c0 -8 -2 -15 -4 -15 -2 0 -6 7 -10 15 -3 8 -1 15 4 15
6 0 10 -7 10 -15z"/>
<path d="M1447 1756 c-10 -25 -9 -26 8 -20 9 4 15 0 15 -7 0 -11 3 -11 10 1
14 22 12 33 -4 27 -8 -3 -16 -1 -19 6 -2 6 -6 3 -10 -7z"/>
<path d="M625 1738 c-8 -21 1 -38 21 -38 18 0 18 11 0 36 -13 17 -15 18 -21 2z
m19 -14 c3 -8 2 -12 -4 -9 -6 3 -10 10 -10 16 0 14 7 11 14 -7z"/>
<path d="M595 1711 c6 -11 4 -13 -8 -8 -21 8 -22 -6 -2 -23 12 -10 19 -10 27
-2 9 9 8 16 -6 30 -11 10 -15 11 -11 3z"/>
<path d="M1554 1698 c-5 -7 -2 -9 7 -4 8 4 5 0 -6 -9 -20 -17 -20 -17 0 -13
11 2 21 11 23 21 4 19 -13 23 -24 5z"/>
<path d="M550 1675 c0 -9 -6 -12 -17 -8 -16 6 -15 3 2 -16 17 -19 21 -21 23
-7 2 9 8 13 14 10 6 -4 5 2 -1 15 -14 25 -21 27 -21 6z"/>
<path d="M1581 1668 c-7 -12 -8 -17 -2 -13 6 3 11 -2 12 -12 0 -14 2 -15 6 -3
3 8 9 17 13 20 4 3 2 10 -4 16 -10 9 -16 7 -25 -8z"/>
<path d="M502 1639 c2 -8 -3 -13 -11 -11 -12 3 -12 0 -1 -13 7 -8 16 -12 19
-8 3 4 10 10 14 14 4 3 1 12 -8 19 -14 11 -16 11 -13 -1z"/>
<path d="M1615 1640 c-4 -7 -3 -16 3 -22 14 -14 45 -2 40 15 -6 16 -34 21 -43
7z m30 -10 c-3 -5 -11 -10 -16 -10 -6 0 -7 5 -4 10 3 6 11 10 16 10 6 0 7 -4
4 -10z"/>
<path d="M1663 1609 c-15 -15 -17 -33 -3 -24 6 3 10 -1 10 -11 0 -13 3 -14 15
-4 16 13 21 35 6 25 -5 -3 -11 2 -13 10 -2 13 -5 14 -15 4z"/>
<path d="M465 1600 c3 -5 -2 -10 -12 -10 -13 0 -10 -5 12 -19 17 -10 31 -17
33 -16 6 5 -22 55 -30 55 -5 0 -6 -4 -3 -10z"/>
<path d="M1697 1563 c-14 -13 -6 -33 12 -33 19 0 35 23 24 34 -8 8 -28 8 -36
-1z m28 -13 c-3 -5 -10 -10 -16 -10 -5 0 -9 5 -9 10 0 6 7 10 16 10 8 0 12 -4
9 -10z"/>
<path d="M407 1533 c5 -12 3 -14 -7 -8 -8 5 -11 3 -8 -6 3 -8 12 -15 21 -17
12 -3 15 1 10 14 -5 13 -3 15 8 9 12 -8 12 -6 0 8 -17 22 -32 22 -24 0z"/>
<path d="M1733 1523 c-7 -2 -13 -9 -13 -14 0 -6 5 -7 10 -4 9 6 14 -8 11 -27
-2 -13 16 -9 29 7 10 12 9 15 -5 15 -11 0 -15 5 -11 15 6 15 1 17 -21 8z"/>
<path d="M374 1484 c5 -12 2 -15 -10 -10 -14 5 -15 4 -4 -9 16 -19 30 -19 30
1 0 9 5 12 13 8 8 -5 8 -2 -2 9 -17 22 -35 22 -27 1z"/>
<path d="M1775 1467 c-13 -10 -15 -16 -6 -21 6 -4 9 -12 6 -17 -10 -15 12 -10
25 6 10 12 9 15 -5 15 -14 0 -15 3 -5 15 15 19 10 19 -15 2z"/>
<path d="M346 1443 c2 -7 -2 -13 -9 -13 -8 0 -6 -4 3 -10 19 -12 33 -13 26 -1
-4 5 0 12 6 14 8 4 7 6 -4 6 -9 1 -18 4 -21 9 -2 4 -2 1 -1 -5z"/>
<path d="M1796 1412 c-9 -16 9 -29 29 -21 11 4 14 8 7 8 -7 1 -10 6 -7 11 3 6
-1 10 -9 10 -8 0 -17 -4 -20 -8z"/>
<path d="M312 1395 c4 -23 39 -27 45 -5 4 13 3 13 -6 0 -10 -13 -13 -12 -27 5
l-16 20 4 -20z"/>
<path d="M1823 1373 c-19 -7 -16 -23 5 -23 14 0 15 -2 2 -10 -8 -5 -10 -10 -5
-10 20 0 38 17 26 24 -6 4 -9 12 -6 17 7 10 -2 11 -22 2z"/>
<path d="M286 1354 c-5 -13 2 -24 16 -24 5 0 6 5 3 10 -3 6 -1 10 5 10 7 0 9
-8 5 -20 -4 -11 -2 -20 4 -20 6 0 11 7 11 15 0 8 5 15 11 15 19 0 0 18 -25 22
-15 3 -27 0 -30 -8z"/>
<path d="M265 1301 c-9 -16 3 -31 26 -31 14 0 19 6 17 17 -4 20 -33 29 -43 14z
m35 -11 c0 -5 -4 -10 -9 -10 -6 0 -13 5 -16 10 -3 6 1 10 9 10 9 0 16 -4 16
-10z"/>
<path d="M1858 1292 c-10 -2 -18 -8 -18 -13 0 -13 27 -11 35 2 9 13 4 16 -17
11z"/>
<path d="M1860 1260 c-13 -8 -13 -10 2 -10 9 0 20 5 23 10 8 13 -5 13 -25 0z"/>
<path d="M250 1240 c0 -11 6 -20 14 -20 8 0 22 -3 30 -6 13 -5 15 -2 9 12 -13
37 -53 47 -53 14z m35 0 c3 -5 -1 -10 -9 -10 -9 0 -16 5 -16 10 0 6 4 10 9 10
6 0 13 -4 16 -10z"/>
<path d="M237 1196 c-7 -18 1 -26 25 -26 13 0 18 6 16 17 -4 22 -34 29 -41 9z
m28 -6 c3 -5 -1 -10 -10 -10 -9 0 -13 5 -10 10 3 6 8 10 10 10 2 0 7 -4 10
-10z"/>
<path d="M1874 1198 c-5 -8 -2 -9 9 -5 9 3 19 2 22 -3 4 -6 -1 -10 -9 -10 -8
0 -17 -4 -20 -9 -3 -4 6 -6 20 -3 17 3 23 9 20 19 -3 8 -6 17 -6 19 0 9 -29 3
-36 -8z"/>
<path d="M567 1185 c-48 -17 -85 -50 -103 -92 -22 -51 -18 -63 19 -63 26 0 35
6 47 33 25 54 41 57 312 57 211 0 249 2 262 16 21 21 20 41 -3 54 -31 16 -487
12 -534 -5z"/>
<path d="M1251 1074 l-131 -126 0 55 c0 52 -16 87 -39 87 -24 0 -31 -31 -31
-141 0 -97 3 -118 16 -123 8 -3 24 -2 33 4 27 14 321 321 321 334 0 13 -20 36
-31 36 -3 0 -65 -57 -138 -126z"/>
<path d="M1560 1115 l-85 -85 46 0 c42 0 49 4 107 63 34 34 62 65 62 69 0 9
-30 38 -38 38 -4 0 -45 -38 -92 -85z"/>
<path d="M230 1146 c0 -8 7 -17 16 -20 23 -9 24 -4 2 17 -14 13 -18 14 -18 3z"/>
<path d="M1872 1130 c13 -20 48 -28 48 -10 0 5 -7 7 -15 4 -8 -4 -15 -1 -15 4
0 6 8 13 18 15 9 3 2 5 -16 6 -30 1 -31 0 -20 -19z"/>
<path d="M222 1093 c2 -10 12 -19 23 -20 16 -1 16 -1 3 3 -10 3 -18 9 -18 14
0 5 8 11 18 13 12 3 11 5 -6 6 -17 1 -23 -4 -20 -16z"/>
<path d="M1884 1089 c-9 -15 12 -33 30 -26 9 4 16 14 15 24 0 16 -1 16 -9 -2
-7 -17 -9 -17 -9 -2 -1 19 -16 23 -27 6z"/>
<path d="M798 1073 c-30 -35 -12 -43 97 -43 109 0 133 11 96 44 -26 24 -172
23 -193 -1z"/>
<path d="M1370 1040 c-12 -8 -9 -10 13 -10 16 0 26 4 22 10 -8 12 -16 12 -35
0z"/>
<path d="M1905 1040 c-19 -8 -19 -9 3 -9 12 -1 22 4 22 9 0 6 -1 10 -2 9 -2 0
-12 -4 -23 -9z"/>
<path d="M220 1020 c0 -5 9 -10 20 -10 11 0 20 5 20 10 0 6 -9 10 -20 10 -11
0 -20 -4 -20 -10z"/>
<path d="M1898 1013 c6 -2 18 -2 25 0 6 3 1 5 -13 5 -14 0 -19 -2 -12 -5z"/>
<path d="M450 980 c0 -63 57 -130 128 -150 60 -16 208 -13 226 6 20 19 20 29
0 48 -12 12 -37 16 -110 16 -125 0 -174 25 -174 89 0 17 -6 21 -35 21 -32 0
-35 -2 -35 -30z"/>
<path d="M862 924 c2 -68 7 -89 20 -97 12 -8 21 -7 32 2 12 10 16 33 16 97 l0
84 -35 0 -36 0 3 -86z"/>
<path d="M1352 924 c2 -68 7 -89 20 -97 12 -8 21 -7 32 2 12 10 16 33 16 97
l0 84 -35 0 -36 0 3 -86z"/>
<path d="M1470 1002 c0 -4 40 -47 88 -95 88 -88 111 -99 127 -59 4 11 -17 38
-67 89 -65 65 -77 73 -110 73 -21 0 -38 -3 -38 -8z"/>
<path d="M223 984 c-5 -13 -7 -13 -14 -2 -7 10 -9 9 -9 -4 0 -13 8 -18 30 -18
23 0 30 4 30 20 0 24 -28 27 -37 4z m27 -4 c0 -5 -4 -10 -10 -10 -5 0 -10 5
-10 10 0 6 5 10 10 10 6 0 10 -4 10 -10z"/>
<path d="M1890 990 c0 -5 5 -10 11 -10 5 0 7 5 4 10 -3 6 -8 10 -11 10 -2 0
-4 -4 -4 -10z"/>
<path d="M1920 981 c0 -5 -8 -12 -17 -14 -14 -4 -12 -5 5 -6 13 -1 22 5 22 14
0 8 -2 15 -5 15 -3 0 -5 -4 -5 -9z"/>
<path d="M283 734 c-15 -6 -17 -30 -4 -38 5 -3 8 2 7 11 -1 21 33 30 46 11 8
-10 9 -10 5 2 -4 16 -33 23 -54 14z"/>
<path d="M1845 733 c17 -3 37 -10 45 -16 13 -10 13 -10 1 6 -8 10 -25 16 -45
16 l-31 -2 30 -4z"/>
<path d="M1826 705 c-3 -9 1 -18 9 -21 23 -9 18 -26 -7 -22 -11 2 -23 -3 -26
-11 -3 -8 0 -11 7 -7 6 4 11 1 11 -8 0 -25 20 -18 30 10 7 19 7 31 -1 40 -9
11 -7 14 7 14 16 0 17 2 4 10 -21 13 -27 12 -34 -5z"/>
<path d="M307 681 c-17 -18 -17 -18 7 -14 16 3 23 10 19 19 -3 8 -6 14 -7 13
0 0 -9 -8 -19 -18z"/>
<path d="M306 642 c-2 -4 -1 -14 3 -20 10 -17 41 -4 41 16 0 13 -3 12 -15 -4
-13 -16 -14 -16 -9 -1 6 17 -10 25 -20 9z"/>
<path d="M1792 612 c4 -16 2 -19 -11 -15 -12 3 -11 1 3 -11 23 -18 40 -21 30
-5 -3 6 -2 14 4 18 7 4 3 12 -10 20 -19 12 -20 11 -16 -7z"/>
<path d="M343 603 c-7 -2 -13 -11 -13 -19 0 -8 6 -14 13 -14 21 0 40 17 33 29
-8 12 -13 12 -33 4z"/>
<path d="M1755 570 c-3 -5 1 -20 9 -32 9 -12 16 -18 16 -12 0 5 -6 16 -12 23
-11 11 -9 13 10 8 27 -6 28 -1 3 13 -13 7 -22 7 -26 0z"/>
<path d="M359 550 c-13 -11 -19 -20 -14 -19 18 4 45 -13 45 -27 0 -8 7 -17 15
-20 8 -4 12 -10 9 -15 -8 -13 10 -11 24 3 7 7 12 8 12 2 0 -6 -5 -15 -12 -22
-8 -8 -8 -12 -1 -12 16 0 36 28 28 40 -4 6 -15 8 -24 5 -13 -4 -17 0 -17 17 1
16 -4 23 -17 22 -13 -2 -15 1 -7 11 7 9 6 16 -4 24 -10 9 -19 7 -37 -9z m23
-12 c-7 -7 -12 -8 -12 -2 0 6 3 14 7 17 3 4 9 5 12 2 2 -3 -1 -11 -7 -17z m30
-40 c-7 -7 -12 -8 -12 -2 0 6 3 14 7 17 3 4 9 5 12 2 2 -3 -1 -11 -7 -17z"/>
<path d="M1733 516 c4 -11 1 -13 -11 -9 -15 6 -15 5 -3 -10 9 -12 10 -17 2
-17 -7 0 -9 -5 -5 -12 4 -7 3 -8 -5 -4 -6 4 -9 11 -6 16 3 5 -3 8 -13 7 -15
-1 -18 -6 -13 -26 4 -14 14 -27 22 -29 12 -5 12 -2 -1 14 -14 18 -14 18 6 2
28 -24 32 -23 26 7 -2 15 0 25 7 25 6 0 11 7 11 16 0 9 5 12 13 8 8 -5 8 -2
-2 9 -17 21 -35 22 -28 3z"/>
<path d="M1650 446 c0 -16 36 -49 47 -45 4 2 -4 16 -19 31 -16 15 -28 21 -28
14z"/>
<path d="M461 436 c-8 -10 -8 -16 3 -25 10 -9 16 -8 26 3 12 15 6 36 -9 36 -5
0 -14 -6 -20 -14z m29 -4 c0 -13 -12 -22 -22 -16 -10 6 -1 24 13 24 5 0 9 -4
9 -8z"/>
<path d="M496 395 c-11 -8 -15 -15 -9 -15 7 0 15 5 18 10 3 6 11 10 17 10 6 0
6 -6 -2 -15 -7 -9 -11 -18 -8 -20 9 -9 30 24 23 35 -8 13 -16 12 -39 -5z"/>
<path d="M1610 389 c0 -5 -4 -7 -10 -4 -14 9 -13 -8 2 -23 17 -17 29 -15 22 3
-5 12 -2 14 12 8 17 -6 17 -5 5 10 -15 19 -31 22 -31 6z"/>
<path d="M540 366 c-10 -13 -10 -20 -2 -28 16 -16 32 2 23 25 -6 17 -8 18 -21
3z"/>
<path d="M1570 356 c0 -10 -5 -14 -11 -10 -8 4 -8 0 0 -15 14 -25 4 -28 -16
-3 -13 16 -14 15 -8 -5 7 -24 -9 -32 -19 -10 -3 6 -3 1 0 -13 6 -24 6 -24 -12
-9 -11 9 -25 14 -33 11 -10 -3 -7 -9 10 -19 13 -8 16 -12 7 -9 -10 3 -18 1
-18 -4 0 -16 22 -12 54 9 17 11 33 18 38 15 4 -3 10 7 14 21 3 13 10 22 15 19
15 -9 10 13 -6 26 -12 10 -15 9 -15 -4z"/>
<path d="M576 334 c-7 -18 0 -34 16 -34 7 0 6 5 -1 14 -8 10 -9 16 -1 21 16
10 31 -5 25 -25 -5 -14 -2 -17 14 -13 19 5 19 5 -2 29 -24 28 -42 31 -51 8z"/>
<path d="M657 294 c-14 -14 -7 -33 10 -27 11 4 14 3 9 -5 -4 -7 -5 -12 -2 -12
3 0 10 10 17 22 10 18 9 20 -4 15 -9 -3 -17 -1 -19 4 -2 6 -7 7 -11 3z"/>
<path d="M701 262 c-12 -22 -11 -23 9 -17 15 5 20 4 16 -4 -4 -6 -5 -11 -2
-11 3 0 10 10 17 22 10 18 9 20 -4 15 -9 -3 -17 -1 -20 6 -2 7 -9 2 -16 -11z"/>
<path d="M1420 269 c0 -6 5 -20 11 -31 9 -17 13 -18 20 -7 16 25 10 49 -11 49
-11 0 -20 -5 -20 -11z m30 -9 c0 -5 -2 -10 -4 -10 -3 0 -8 5 -11 10 -3 6 -1
10 4 10 6 0 11 -4 11 -10z"/>
<path d="M1380 243 c0 -17 6 -23 23 -23 16 0 18 3 8 9 -7 5 -17 15 -22 22 -6
10 -9 8 -9 -8z"/>
<path d="M777 230 c-5 -18 -2 -21 13 -17 14 3 17 0 13 -12 -4 -14 -3 -14 6 -1
14 20 14 43 0 34 -6 -3 -15 -1 -19 6 -5 8 -9 5 -13 -10z"/>
<path d="M1357 229 c4 -13 8 -18 11 -10 2 7 -1 18 -6 23 -8 8 -9 4 -5 -13z"/>
<path d="M1330 228 c0 -9 5 -20 10 -23 13 -8 13 5 0 25 -8 13 -10 13 -10 -2z"/>
<path d="M837 224 c-14 -14 -7 -33 10 -27 12 5 14 3 8 -7 -5 -9 -4 -11 3 -6 7
4 12 14 12 22 0 8 -4 13 -9 10 -5 -4 -11 -1 -13 5 -2 5 -7 7 -11 3z"/>
<path d="M1286 221 c-9 -14 5 -42 18 -38 18 6 20 47 2 47 -8 0 -17 -4 -20 -9z
m24 -17 c0 -8 -4 -12 -10 -9 -5 3 -10 10 -10 16 0 5 5 9 10 9 6 0 10 -7 10
-16z"/>
<path d="M887 213 c-14 -13 -7 -43 11 -43 13 0 14 2 3 9 -7 5 -10 14 -7 20 4
6 12 8 18 5 7 -4 8 -2 4 4 -8 13 -19 15 -29 5z"/>
<path d="M1236 211 c-9 -14 4 -41 20 -41 8 0 14 10 14 25 0 25 -23 35 -34 16z
m24 -17 c0 -8 -4 -12 -10 -9 -5 3 -10 10 -10 16 0 5 5 9 10 9 6 0 10 -7 10
-16z"/>
<path d="M934 185 c-2 -28 11 -25 19 5 3 11 0 20 -6 20 -7 0 -13 -11 -13 -25z"/>
<path d="M1192 185 c0 -16 2 -24 5 -17 3 9 9 10 18 2 9 -8 11 -4 7 16 -3 16
-7 22 -12 14 -6 -9 -9 -9 -13 1 -3 8 -5 1 -5 -16z"/>
<path d="M970 179 c0 -11 4 -18 10 -14 5 3 7 12 3 20 -7 21 -13 19 -13 -6z"/>
<path d="M996 192 c-2 -4 -1 -14 5 -22 7 -12 9 -10 9 8 0 23 -5 28 -14 14z"/>
<path d="M1028 173 c5 -23 7 -25 10 -8 2 11 9 23 16 27 6 5 3 8 -10 8 -18 0
-20 -4 -16 -27z"/>
<path d="M1116 192 c7 -4 14 -16 16 -27 3 -17 5 -15 10 8 4 23 2 27 -16 27
-13 0 -16 -3 -10 -8z"/>
<path d="M1074 158 c1 -25 2 -26 14 -11 16 22 15 40 -1 40 -9 0 -14 -11 -13
-29z"/>
</g>
</svg>
